<?xml version="1.0" encoding="iso-8859-1"?>
<!-- Uploaded to: SVG Repo, www.svgrepo.com, Generator: SVG Repo Mixer Tools -->
<svg fill="#000000" height="800px" width="800px" version="1.1" id="Layer_1" xmlns="http://www.w3.org/2000/svg" xmlns:xlink="http://www.w3.org/1999/xlink" 
	 viewBox="0 0 455 455" xml:space="preserve">
<g>
	<path d="M342.5,350c0-11.028-8.972-20-20-20h-50v40h50C333.527,370,342.5,361.028,342.5,350z"/>
	<path d="M322.5,245h-50v55h50c27.57,0,50,22.43,50,50s-22.43,50-50,50h-190c-27.57,0-50-22.43-50-50s22.43-50,50-50h50v-55h-50
		c-57.897,0-105,47.103-105,105s47.103,105,105,105h190c57.897,0,105-47.103,105-105S380.397,245,322.5,245z"/>
	<path d="M112.5,350c0,11.028,8.972,20,20,20h50v-40h-50C121.472,330,112.5,338.972,112.5,350z"/>
	<circle cx="227.5" cy="69.997" r="69.997"/>
	<path d="M212.5,168.869V370h30V168.869c-4.894,0.74-9.903,1.125-15,1.125C222.402,169.994,217.394,169.608,212.5,168.869z"/>
</g>
</svg>