<svg width="150" height="150" viewBox="0 0 150 150" fill="none" xmlns="http://www.w3.org/2000/svg">
<rect width="150" height="150" fill="#F5F5F5"/>
<circle cx="75" cy="75" r="75" fill="#64CC33"/>
<path d="M66.8105 52.168V61.4453H36.5371V52.168H66.8105ZM44.6426 39.1797H57.582V89.7656C57.582 91.3281 57.7936 92.5326 58.2168 93.3789C58.64 94.2253 59.2747 94.7949 60.1211 95.0879C60.9674 95.3809 61.9766 95.5273 63.1484 95.5273C63.9948 95.5273 64.776 95.4785 65.4922 95.3809C66.2083 95.2832 66.8105 95.1855 67.2988 95.0879L67.3477 104.756C66.2734 105.114 65.0527 105.407 63.6855 105.635C62.3509 105.863 60.8372 105.977 59.1445 105.977C56.2474 105.977 53.7083 105.488 51.5273 104.512C49.3464 103.503 47.6536 101.891 46.4492 99.6777C45.2448 97.4316 44.6426 94.4694 44.6426 90.791V39.1797ZM98.2949 62.959V105H85.4043V52.168H97.6113L98.2949 62.959ZM114.359 51.8262L114.164 63.8379C113.448 63.7077 112.634 63.61 111.723 63.5449C110.844 63.4798 110.014 63.4473 109.232 63.4473C107.247 63.4473 105.505 63.724 104.008 64.2773C102.51 64.7982 101.257 65.5632 100.248 66.5723C99.2715 67.5814 98.5228 68.8184 98.002 70.2832C97.4811 71.7155 97.1882 73.3431 97.123 75.166L94.3398 74.8242C94.3398 71.4714 94.6816 68.3626 95.3652 65.498C96.0488 62.6335 97.0417 60.127 98.3438 57.9785C99.6458 55.8301 101.273 54.1699 103.227 52.998C105.212 51.7936 107.491 51.1914 110.062 51.1914C110.779 51.1914 111.544 51.2565 112.357 51.3867C113.204 51.4844 113.871 51.6309 114.359 51.8262Z" fill="white"/>
</svg>
